# xmcd CD database file
#
# Track frame offsets:
#	150
#	19177
#	35042
#	49250
#	79615
#
# Disc length: 1635 seconds
#
# Revision: 0
# Processed by: cddbd v1.5PL3 Copyright (c) Steve Scherf et al.
# Submitted via: CDex 1.50beta8
#
DISCID=38066105
DTITLE=ENTERBRAIN - True Love Story Summer Days, and yet...　プレキャラクターシリーズ　Vol.3
DYEAR=2003
DGENRE=Game
TTITLE0=禁じられた果実
TTITLE1=篠坂唯子 Monologue
TTITLE2=篠坂唯子　キャラクターBGM
TTITLE3=禁じられた果実（カラオケ）
TTITLE4=Data Track
EXTD=YEAR: 2003
EXTT0=
EXTT1=
EXTT2=
EXTT3=
EXTT4=
PLAYORDER=
